<svg id="SvgjsSvg1014" width="288" height="288" xmlns="http://www.w3.org/2000/svg" version="1.1" xmlns:xlink="http://www.w3.org/1999/xlink" xmlns:svgjs="http://svgjs.com/svgjs"><defs id="SvgjsDefs1015"></defs><g id="SvgjsG1016"><svg xmlns="http://www.w3.org/2000/svg" width="288" height="288" version="1.0" viewBox="0 0 840 572"><g transform="matrix(.1 0 0 -.1 0 572)" fill="#ec9116" class="color000 svgShape"><path d="M2820 4783 c-304 -9 -478 -22 -518 -38 -45 -18 -72 -55 -72 -97 1-36 37 -108 81 -160 21 -26 39 -56 39 -67 0 -11 -108 -422 -241 -913 -132
-491 -245 -914 -250 -939 -25 -116 52 -132 127 -27 48 66 161 175 239 230 219
155 473 229 791 229 308 1 462 -50 620 -206 130 -128 217 -280 294 -513 55
-169 88 -337 115 -593 7 -65 35 -116 71 -129 15 -6 210 -10 482 -10 415 0 460
2 491 18 46 23 71 73 71 143 0 73 25 99 93 99 69 0 92 16 153 102 102 146 216
240 348 286 183 64 444 4 601 -138 76 -69 118 -66 149 10 38 94 14 332 -63
630 -61 238 -77 284 -114 320 -60 61 -115 77 -695 202 -306 66 -561 124 -566
128 -4 5 -32 266 -62 582 -30 315 -56 582 -59 594 -10 45 -88 57 -131 21 l-27
-23 52 -540 c28 -296 51 -553 51 -570 l0 -31 -127 28 c-71 16 -138 31 -150 34
-35 8 -88 60 -105 102 -9 21 -28 94 -43 163 -15 69 -48 210 -75 315 l-48 190
43 48 c134 148 122 301 -32 403 -101 67 -234 95 -548 114 -151 9 -731 11 -985
3z m373 -260 l137 -6 0 -645 0 -644 -22 5 c-13 4 -81 9 -153 13 -116 5 -186 2
-426 -22 -110 -11 -107 -56 -43 606 29 311 54 575 54 587 0 12 12 35 26 52 48
58 132 69 427 54z m667 -29 c215 -8 228 -13 270 -98 26 -54 45 -150 160 -821
73 -418 134 -772 137 -787 l6 -28 -304 0 -304 0 -44 73 c-97 157 -201 277
-299 342 l-42 28 0 655 0 655 123 -6 c67 -4 201 -9 297 -13z m608 -1946 c29
-175 29 -193 -7 -229 l-29 -29 -150 0 c-208 0 -249 19 -300 142 -17 40 -48
109 -69 153 -21 44 -39 83 -41 88 -2 4 126 7 285 7 l289 0 22 -132z" fill="#ec9116" class="color000 svgShape"></path><path d="M2765 2870c-646-100-1017-792-740-1378 58-122 114-199 211-292 127-121 277-203 450-247 105-26 353-23 458 5 238 65 440 208 571 402 210 314 219 732 23 1050-60 97-177 224-264 286-86 61-234 129-334 154-98 24-284 34-375 20zm253-465c101-24 170-63 248-140 103-102 154-221 154-360 0-236-178-456-408-504-345-72-664 226-614 573 44 299 331 499 620 431zM5821 2084c-147-39-301-161-369-290-118-226-77-499 101-678 235-235 589-235 824 0 193 195 224 490 74 720-76 119-209 214-346 249-74 19-213 18-284-1zm282-278c215-105 242-410 50-550-167-121-393-66-484 119-68 138-27 307 97 402 91 69 231 81 337 29z" fill="#ec9116" class="color000 svgShape"></path></g></svg></g></svg>