<svg id="SvgjsSvg1021" width="288" height="288" xmlns="http://www.w3.org/2000/svg" version="1.1" xmlns:xlink="http://www.w3.org/1999/xlink" xmlns:svgjs="http://svgjs.com/svgjs"><defs id="SvgjsDefs1022"></defs><g id="SvgjsG1023"><svg xmlns="http://www.w3.org/2000/svg" width="288" height="288" version="1.0" viewBox="0 0 840 586"><path d="M4111 5439 c-68 -12 -129 -39 -192 -85 -27 -20 -329 -322 -671 -673-342 -350 -703 -719 -802 -821 -577 -590 -742 -768 -769 -829 -26 -58 -27
-153 -2 -202 52 -101 100 -132 238 -153 106 -16 145 -36 175 -89 16 -30 17
-94 20 -827 3 -907 6 -991 49 -1082 36 -76 119 -163 203 -212 l61 -36 1108 0
1107 0 46 29 c25 16 57 44 72 63 l26 35 0 960 0 959 -36 42 c-68 80 -45 77
-534 77 -422 0 -436 -1 -475 -21 -22 -11 -55 -40 -72 -63 l-33 -43 -1 -221 c0
-122 -4 -366 -8 -542 -8 -360 -5 -350 -86 -405 -109 -75 -228 -55 -306 53
l-29 40 0 563 0 563 26 71 c62 174 171 298 331 377 l96 48 521 3 c344 2 538
-1 571 -8 85 -18 190 -77 268 -150 84 -79 127 -146 175 -273 l34 -91 -5 -985
c-4 -873 -6 -992 -20 -1041 -9 -30 -17 -59 -17 -63 0 -5 165 -7 368 -5 317 4
375 7 422 22 120 39 228 138 289 266 l36 75 2 210 c2 116 4 514 6 885 2 673 2
675 24 720 29 59 65 79 172 95 178 27 251 101 251 255 0 90 -13 119 -90 205
-151 168 -1213 1262 -1876 1932 -332 336 -353 351 -499 373 -80 11 -100 11
-174 -1z" transform="matrix(.1 0 0 -.1 0 586)" fill="#ec963a" class="color000 svgShape"></path></svg></g></svg>